<?xml version="1.0" encoding="UTF-8" standalone="no"?>
<!DOCTYPE svg PUBLIC "-//W3C//DTD SVG 1.1//EN"
 "http://www.w3.org/Graphics/SVG/1.1/DTD/svg11.dtd">
<!-- Generated by graphviz version 14.0.1 (20251006.0113)
 -->
<!-- Pages: 1 -->
<svg width="1035pt" height="6000pt"
 viewBox="0.00 0.00 1035.00 6000.00" xmlns="http://www.w3.org/2000/svg" xmlns:xlink="http://www.w3.org/1999/xlink">
<g id="graph0" class="graph" transform="scale(2.51151 2.51151) rotate(0) translate(4 2385)">
<polygon fill="white" stroke="none" points="-4,4 -4,-2385 408.23,-2385 408.23,4 -4,4"/>
<!-- inicio -->
<g id="node1" class="node">
<title>inicio</title>
<ellipse fill="lightgreen" stroke="black" cx="194" cy="-2352.2" rx="90" ry="28.8"/>
<text xml:space="preserve" text-anchor="middle" x="194" y="-2346.77" font-family="Arial" font-size="14.00">INICIO</text>
</g>
<!-- leer -->
<g id="node2" class="node">
<title>leer</title>
<path fill="lightblue" stroke="black" d="M272,-2286.4C272,-2286.4 116,-2286.4 116,-2286.4 110,-2286.4 104,-2280.4 104,-2274.4 104,-2274.4 104,-2240.8 104,-2240.8 104,-2234.8 110,-2228.8 116,-2228.8 116,-2228.8 272,-2228.8 272,-2228.8 278,-2228.8 284,-2234.8 284,-2240.8 284,-2240.8 284,-2274.4 284,-2274.4 284,-2280.4 278,-2286.4 272,-2286.4"/>
<text xml:space="preserve" text-anchor="middle" x="194" y="-2252.17" font-family="Arial" font-size="14.00">Leer archivo_datos</text>
</g>
<!-- inicio&#45;&gt;leer -->
<g id="edge1" class="edge">
<title>inicio&#45;&gt;leer</title>
<path fill="none" stroke="black" d="M194,-2322.91C194,-2315.11 194,-2306.49 194,-2298.16"/>
<polygon fill="black" stroke="black" points="197.5,-2298.23 194,-2288.23 190.5,-2298.23 197.5,-2298.23"/>
</g>
<!-- check_archivo -->
<g id="node3" class="node">
<title>check_archivo</title>
<path fill="lightyellow" stroke="black" d="M182.57,-2188.14C182.57,-2188.14 115.43,-2166.66 115.43,-2166.66 109.71,-2164.83 109.71,-2161.17 115.43,-2159.34 115.43,-2159.34 182.57,-2137.86 182.57,-2137.86 188.29,-2136.03 199.71,-2136.03 205.43,-2137.86 205.43,-2137.86 272.57,-2159.34 272.57,-2159.34 278.29,-2161.17 278.29,-2164.83 272.57,-2166.66 272.57,-2166.66 205.43,-2188.14 205.43,-2188.14 199.71,-2189.97 188.29,-2189.97 182.57,-2188.14"/>
<text xml:space="preserve" text-anchor="middle" x="194" y="-2157.57" font-family="Arial" font-size="14.00">¿Archivo existe?</text>
</g>
<!-- leer&#45;&gt;check_archivo -->
<g id="edge2" class="edge">
<title>leer&#45;&gt;check_archivo</title>
<path fill="none" stroke="black" d="M194,-2228.31C194,-2220.51 194,-2211.89 194,-2203.56"/>
<polygon fill="black" stroke="black" points="197.5,-2203.63 194,-2193.63 190.5,-2203.63 197.5,-2203.63"/>
</g>
<!-- error -->
<g id="node4" class="node">
<title>error</title>
<path fill="lightcoral" stroke="black" d="M174,-2083.95C174,-2083.95 18,-2083.95 18,-2083.95 12,-2083.95 6,-2077.95 6,-2071.95 6,-2071.95 6,-2038.35 6,-2038.35 6,-2032.35 12,-2026.35 18,-2026.35 18,-2026.35 174,-2026.35 174,-2026.35 180,-2026.35 186,-2032.35 186,-2038.35 186,-2038.35 186,-2071.95 186,-2071.95 186,-2077.95 180,-2083.95 174,-2083.95"/>
<text xml:space="preserve" text-anchor="middle" x="96" y="-2057.6" font-family="Arial" font-size="14.00">Mostrar Error:</text>
<text xml:space="preserve" text-anchor="middle" x="96" y="-2041.85" font-family="Arial" font-size="14.00">Archivo no encontrado</text>
</g>
<!-- check_archivo&#45;&gt;error -->
<g id="edge3" class="edge">
<title>check_archivo&#45;&gt;error</title>
<path fill="none" stroke="black" d="M173.93,-2140.32C161.15,-2126.52 144.28,-2108.3 129.51,-2092.34"/>
<polygon fill="black" stroke="black" points="132.39,-2090.31 123.03,-2085.35 127.26,-2095.06 132.39,-2090.31"/>
<text xml:space="preserve" text-anchor="middle" x="159.87" y="-2104.8" font-family="Times New Roman,serif" font-size="12.00">NO</text>
</g>
<!-- cargar -->
<g id="node6" class="node">
<title>cargar</title>
<path fill="lightblue" stroke="black" d="M375,-2083.95C375,-2083.95 219,-2083.95 219,-2083.95 213,-2083.95 207,-2077.95 207,-2071.95 207,-2071.95 207,-2038.35 207,-2038.35 207,-2032.35 213,-2026.35 219,-2026.35 219,-2026.35 375,-2026.35 375,-2026.35 381,-2026.35 387,-2032.35 387,-2038.35 387,-2038.35 387,-2071.95 387,-2071.95 387,-2077.95 381,-2083.95 375,-2083.95"/>
<text xml:space="preserve" text-anchor="middle" x="297" y="-2057.6" font-family="Arial" font-size="14.00">Cargar datos</text>
<text xml:space="preserve" text-anchor="middle" x="297" y="-2041.85" font-family="Arial" font-size="14.00">en memoria</text>
</g>
<!-- check_archivo&#45;&gt;cargar -->
<g id="edge5" class="edge">
<title>check_archivo&#45;&gt;cargar</title>
<path fill="none" stroke="black" d="M214.84,-2140.58C228.26,-2126.79 246.04,-2108.52 261.63,-2092.5"/>
<polygon fill="black" stroke="black" points="264.02,-2095.06 268.49,-2085.45 259,-2090.18 264.02,-2095.06"/>
<text xml:space="preserve" text-anchor="middle" x="256.92" y="-2104.8" font-family="Times New Roman,serif" font-size="12.00">SÍ</text>
</g>
<!-- fin_error -->
<g id="node5" class="node">
<title>fin_error</title>
<ellipse fill="lightcoral" stroke="black" cx="90" cy="-1960.55" rx="90" ry="28.8"/>
<text xml:space="preserve" text-anchor="middle" x="90" y="-1955.12" font-family="Arial" font-size="14.00">FIN</text>
</g>
<!-- error&#45;&gt;fin_error -->
<g id="edge4" class="edge">
<title>error&#45;&gt;fin_error</title>
<path fill="none" stroke="black" d="M94.17,-2025.86C93.66,-2018.06 93.1,-2009.44 92.56,-2001.11"/>
<polygon fill="black" stroke="black" points="96.06,-2000.93 91.92,-1991.17 89.07,-2001.38 96.06,-2000.93"/>
</g>
<!-- validar -->
<g id="node7" class="node">
<title>validar</title>
<path fill="lightyellow" stroke="black" d="M289.44,-1986.13C289.44,-1986.13 209.33,-1963.77 209.33,-1963.77 203.55,-1962.16 203.55,-1958.94 209.33,-1957.33 209.33,-1957.33 289.44,-1934.97 289.44,-1934.97 295.22,-1933.36 306.78,-1933.36 312.56,-1934.97 312.56,-1934.97 392.67,-1957.33 392.67,-1957.33 398.45,-1958.94 398.45,-1962.16 392.67,-1963.77 392.67,-1963.77 312.56,-1986.13 312.56,-1986.13 306.78,-1987.74 295.22,-1987.74 289.44,-1986.13"/>
<text xml:space="preserve" text-anchor="middle" x="301" y="-1955.12" font-family="Arial" font-size="14.00">¿Datos completos?</text>
</g>
<!-- cargar&#45;&gt;validar -->
<g id="edge6" class="edge">
<title>cargar&#45;&gt;validar</title>
<path fill="none" stroke="black" d="M298.22,-2025.86C298.57,-2017.89 298.95,-2009.08 299.31,-2000.59"/>
<polygon fill="black" stroke="black" points="302.8,-2001 299.73,-1990.86 295.81,-2000.7 302.8,-2001"/>
</g>
<!-- limpiar -->
<g id="node8" class="node">
<title>limpiar</title>
<path fill="lightblue" stroke="black" d="M293,-1881.5C293,-1881.5 137,-1881.5 137,-1881.5 131,-1881.5 125,-1875.5 125,-1869.5 125,-1869.5 125,-1835.9 125,-1835.9 125,-1829.9 131,-1823.9 137,-1823.9 137,-1823.9 293,-1823.9 293,-1823.9 299,-1823.9 305,-1829.9 305,-1835.9 305,-1835.9 305,-1869.5 305,-1869.5 305,-1875.5 299,-1881.5 293,-1881.5"/>
<text xml:space="preserve" text-anchor="middle" x="215" y="-1855.15" font-family="Arial" font-size="14.00">Limpiar datos</text>
<text xml:space="preserve" text-anchor="middle" x="215" y="-1839.4" font-family="Arial" font-size="14.00">incompletos</text>
</g>
<!-- validar&#45;&gt;limpiar -->
<g id="edge7" class="edge">
<title>validar&#45;&gt;limpiar</title>
<path fill="none" stroke="black" d="M282.34,-1936.58C271.44,-1923.16 257.42,-1905.91 245,-1890.63"/>
<polygon fill="black" stroke="black" points="247.89,-1888.63 238.87,-1883.08 242.46,-1893.04 247.89,-1888.63"/>
<text xml:space="preserve" text-anchor="middle" x="272.15" y="-1902.35" font-family="Times New Roman,serif" font-size="12.00">NO</text>
</g>
<!-- bucle_inicio -->
<g id="node9" class="node">
<title>bucle_inicio</title>
<path fill="lightcyan" stroke="black" d="M373.02,-1786.9C373.02,-1786.9 226.77,-1786.9 226.77,-1786.9 220.77,-1786.9 211.14,-1782.12 207.51,-1777.35 207.51,-1777.35 178.24,-1738.85 178.24,-1738.85 174.61,-1734.08 176.98,-1729.3 182.98,-1729.3 182.98,-1729.3 329.23,-1729.3 329.23,-1729.3 335.23,-1729.3 344.86,-1734.08 348.49,-1738.85 348.49,-1738.85 377.76,-1777.35 377.76,-1777.35 381.39,-1782.12 379.02,-1786.9 373.02,-1786.9"/>
<text xml:space="preserve" text-anchor="middle" x="278" y="-1752.67" font-family="Arial" font-size="14.00">PARA cada registro</text>
</g>
<!-- validar&#45;&gt;bucle_inicio -->
<g id="edge9" class="edge">
<title>validar&#45;&gt;bucle_inicio</title>
<path fill="none" stroke="black" d="M308.73,-1933.63C315.76,-1906.02 323.67,-1861.23 314,-1823.9 311.64,-1814.78 307.68,-1805.57 303.23,-1797.08"/>
<polygon fill="black" stroke="black" points="306.33,-1795.45 298.38,-1788.44 300.23,-1798.87 306.33,-1795.45"/>
<text xml:space="preserve" text-anchor="middle" x="323.74" y="-1848.42" font-family="Times New Roman,serif" font-size="12.00">SÍ</text>
</g>
<!-- limpiar&#45;&gt;bucle_inicio -->
<g id="edge8" class="edge">
<title>limpiar&#45;&gt;bucle_inicio</title>
<path fill="none" stroke="black" d="M234.24,-1823.41C239.98,-1814.98 246.37,-1805.59 252.44,-1796.66"/>
<polygon fill="black" stroke="black" points="255.29,-1798.7 258.02,-1788.46 249.5,-1794.76 255.29,-1798.7"/>
</g>
<!-- calc_ventas -->
<g id="node10" class="node">
<title>calc_ventas</title>
<path fill="lightblue" stroke="black" d="M297,-1692.3C297,-1692.3 141,-1692.3 141,-1692.3 135,-1692.3 129,-1686.3 129,-1680.3 129,-1680.3 129,-1646.7 129,-1646.7 129,-1640.7 135,-1634.7 141,-1634.7 141,-1634.7 297,-1634.7 297,-1634.7 303,-1634.7 309,-1640.7 309,-1646.7 309,-1646.7 309,-1680.3 309,-1680.3 309,-1686.3 303,-1692.3 297,-1692.3"/>
<text xml:space="preserve" text-anchor="middle" x="219" y="-1658.07" font-family="Arial" font-size="14.00">Calcular total_ventas</text>
</g>
<!-- bucle_inicio&#45;&gt;calc_ventas -->
<g id="edge10" class="edge">
<title>bucle_inicio&#45;&gt;calc_ventas</title>
<path fill="none" stroke="black" d="M259.98,-1728.81C254.6,-1720.38 248.62,-1710.99 242.93,-1702.06"/>
<polygon fill="black" stroke="black" points="246.05,-1700.44 237.73,-1693.89 240.15,-1704.2 246.05,-1700.44"/>
</g>
<!-- ident_cliente -->
<g id="node11" class="node">
<title>ident_cliente</title>
<path fill="lightblue" stroke="black" d="M297,-1597.7C297,-1597.7 141,-1597.7 141,-1597.7 135,-1597.7 129,-1591.7 129,-1585.7 129,-1585.7 129,-1552.1 129,-1552.1 129,-1546.1 135,-1540.1 141,-1540.1 141,-1540.1 297,-1540.1 297,-1540.1 303,-1540.1 309,-1546.1 309,-1552.1 309,-1552.1 309,-1585.7 309,-1585.7 309,-1591.7 303,-1597.7 297,-1597.7"/>
<text xml:space="preserve" text-anchor="middle" x="219" y="-1563.47" font-family="Arial" font-size="14.00">Identificar cliente</text>
</g>
<!-- calc_ventas&#45;&gt;ident_cliente -->
<g id="edge11" class="edge">
<title>calc_ventas&#45;&gt;ident_cliente</title>
<path fill="none" stroke="black" d="M219,-1634.21C219,-1626.41 219,-1617.79 219,-1609.46"/>
<polygon fill="black" stroke="black" points="222.5,-1609.53 219,-1599.53 215.5,-1609.53 222.5,-1609.53"/>
</g>
<!-- ident_producto -->
<g id="node12" class="node">
<title>ident_producto</title>
<path fill="lightblue" stroke="black" d="M297,-1489.85C297,-1489.85 141,-1489.85 141,-1489.85 135,-1489.85 129,-1483.85 129,-1477.85 129,-1477.85 129,-1444.25 129,-1444.25 129,-1438.25 135,-1432.25 141,-1432.25 141,-1432.25 297,-1432.25 297,-1432.25 303,-1432.25 309,-1438.25 309,-1444.25 309,-1444.25 309,-1477.85 309,-1477.85 309,-1483.85 303,-1489.85 297,-1489.85"/>
<text xml:space="preserve" text-anchor="middle" x="219" y="-1455.62" font-family="Arial" font-size="14.00">Identificar producto</text>
</g>
<!-- ident_cliente&#45;&gt;ident_producto -->
<g id="edge12" class="edge">
<title>ident_cliente&#45;&gt;ident_producto</title>
<path fill="none" stroke="black" d="M219,-1539.81C219,-1528.09 219,-1514.26 219,-1501.55"/>
<polygon fill="black" stroke="black" points="222.5,-1501.78 219,-1491.78 215.5,-1501.78 222.5,-1501.78"/>
</g>
<!-- reg_pago -->
<g id="node13" class="node">
<title>reg_pago</title>
<path fill="lightblue" stroke="black" d="M297,-1395.25C297,-1395.25 141,-1395.25 141,-1395.25 135,-1395.25 129,-1389.25 129,-1383.25 129,-1383.25 129,-1349.65 129,-1349.65 129,-1343.65 135,-1337.65 141,-1337.65 141,-1337.65 297,-1337.65 297,-1337.65 303,-1337.65 309,-1343.65 309,-1349.65 309,-1349.65 309,-1383.25 309,-1383.25 309,-1389.25 303,-1395.25 297,-1395.25"/>
<text xml:space="preserve" text-anchor="middle" x="219" y="-1361.02" font-family="Arial" font-size="14.00">Registrar medio_pago</text>
</g>
<!-- ident_producto&#45;&gt;reg_pago -->
<g id="edge13" class="edge">
<title>ident_producto&#45;&gt;reg_pago</title>
<path fill="none" stroke="black" d="M219,-1431.76C219,-1423.96 219,-1415.34 219,-1407.01"/>
<polygon fill="black" stroke="black" points="222.5,-1407.08 219,-1397.08 215.5,-1407.08 222.5,-1407.08"/>
</g>
<!-- check_mas -->
<g id="node14" class="node">
<title>check_mas</title>
<path fill="lightyellow" stroke="black" d="M266.57,-1296.99C266.57,-1296.99 199.43,-1275.51 199.43,-1275.51 193.71,-1273.68 193.71,-1270.02 199.43,-1268.19 199.43,-1268.19 266.57,-1246.71 266.57,-1246.71 272.29,-1244.88 283.71,-1244.88 289.43,-1246.71 289.43,-1246.71 356.57,-1268.19 356.57,-1268.19 362.29,-1270.02 362.29,-1273.68 356.57,-1275.51 356.57,-1275.51 289.43,-1296.99 289.43,-1296.99 283.71,-1298.82 272.29,-1298.82 266.57,-1296.99"/>
<text xml:space="preserve" text-anchor="middle" x="278" y="-1266.42" font-family="Arial" font-size="14.00">¿Más registros?</text>
</g>
<!-- reg_pago&#45;&gt;check_mas -->
<g id="edge14" class="edge">
<title>reg_pago&#45;&gt;check_mas</title>
<path fill="none" stroke="black" d="M237.02,-1337.16C243.34,-1327.25 250.49,-1316.03 257.03,-1305.77"/>
<polygon fill="black" stroke="black" points="259.83,-1307.89 262.25,-1297.57 253.92,-1304.12 259.83,-1307.89"/>
</g>
<!-- check_mas&#45;&gt;bucle_inicio -->
<g id="edge15" class="edge">
<title>check_mas&#45;&gt;bucle_inicio</title>
<path fill="none" stroke="black" d="M300.98,-1293.68C317.55,-1311.06 337,-1337.43 337,-1365.45 337,-1664.5 337,-1664.5 337,-1664.5 337,-1684.9 326.69,-1704.42 314.69,-1720.24"/>
<polygon fill="black" stroke="black" points="312.04,-1717.95 308.45,-1727.92 317.47,-1722.37 312.04,-1717.95"/>
<text xml:space="preserve" text-anchor="middle" x="342.25" y="-1510.7" font-family="Times New Roman,serif" font-size="12.00">SÍ</text>
</g>
<!-- gen_resultados -->
<g id="node15" class="node">
<title>gen_resultados</title>
<path fill="plum" stroke="black" d="M356,-1192.8C356,-1192.8 200,-1192.8 200,-1192.8 194,-1192.8 188,-1186.8 188,-1180.8 188,-1180.8 188,-1147.2 188,-1147.2 188,-1141.2 194,-1135.2 200,-1135.2 200,-1135.2 356,-1135.2 356,-1135.2 362,-1135.2 368,-1141.2 368,-1147.2 368,-1147.2 368,-1180.8 368,-1180.8 368,-1186.8 362,-1192.8 356,-1192.8"/>
<text xml:space="preserve" text-anchor="middle" x="278" y="-1158.57" font-family="Arial" font-size="14.00">Generar Resultados</text>
</g>
<!-- check_mas&#45;&gt;gen_resultados -->
<g id="edge16" class="edge">
<title>check_mas&#45;&gt;gen_resultados</title>
<path fill="none" stroke="black" d="M278,-1242.76C278,-1231.04 278,-1217.21 278,-1204.5"/>
<polygon fill="black" stroke="black" points="281.5,-1204.73 278,-1194.73 274.5,-1204.73 281.5,-1204.73"/>
<text xml:space="preserve" text-anchor="middle" x="287" y="-1213.65" font-family="Times New Roman,serif" font-size="12.00">NO</text>
</g>
<!-- calc_mensual -->
<g id="node16" class="node">
<title>calc_mensual</title>
<path fill="plum" stroke="black" d="M356,-1098.2C356,-1098.2 200,-1098.2 200,-1098.2 194,-1098.2 188,-1092.2 188,-1086.2 188,-1086.2 188,-1052.6 188,-1052.6 188,-1046.6 194,-1040.6 200,-1040.6 200,-1040.6 356,-1040.6 356,-1040.6 362,-1040.6 368,-1046.6 368,-1052.6 368,-1052.6 368,-1086.2 368,-1086.2 368,-1092.2 362,-1098.2 356,-1098.2"/>
<text xml:space="preserve" text-anchor="middle" x="278" y="-1071.85" font-family="Arial" font-size="14.00">Calcular</text>
<text xml:space="preserve" text-anchor="middle" x="278" y="-1056.1" font-family="Arial" font-size="14.00">ingresos_mensuales</text>
</g>
<!-- gen_resultados&#45;&gt;calc_mensual -->
<g id="edge17" class="edge">
<title>gen_resultados&#45;&gt;calc_mensual</title>
<path fill="none" stroke="black" d="M278,-1134.71C278,-1126.91 278,-1118.29 278,-1109.96"/>
<polygon fill="black" stroke="black" points="281.5,-1110.03 278,-1100.03 274.5,-1110.03 281.5,-1110.03"/>
</g>
<!-- ident_mejores -->
<g id="node17" class="node">
<title>ident_mejores</title>
<path fill="plum" stroke="black" d="M356,-1003.6C356,-1003.6 200,-1003.6 200,-1003.6 194,-1003.6 188,-997.6 188,-991.6 188,-991.6 188,-958 188,-958 188,-952 194,-946 200,-946 200,-946 356,-946 356,-946 362,-946 368,-952 368,-958 368,-958 368,-991.6 368,-991.6 368,-997.6 362,-1003.6 356,-1003.6"/>
<text xml:space="preserve" text-anchor="middle" x="278" y="-977.25" font-family="Arial" font-size="14.00">Identificar</text>
<text xml:space="preserve" text-anchor="middle" x="278" y="-961.5" font-family="Arial" font-size="14.00">mejores_clientes (Top 10)</text>
</g>
<!-- calc_mensual&#45;&gt;ident_mejores -->
<g id="edge18" class="edge">
<title>calc_mensual&#45;&gt;ident_mejores</title>
<path fill="none" stroke="black" d="M278,-1040.11C278,-1032.31 278,-1023.69 278,-1015.36"/>
<polygon fill="black" stroke="black" points="281.5,-1015.43 278,-1005.43 274.5,-1015.43 281.5,-1015.43"/>
</g>
<!-- ident_popular -->
<g id="node18" class="node">
<title>ident_popular</title>
<path fill="plum" stroke="black" d="M356,-909C356,-909 200,-909 200,-909 194,-909 188,-903 188,-897 188,-897 188,-863.4 188,-863.4 188,-857.4 194,-851.4 200,-851.4 200,-851.4 356,-851.4 356,-851.4 362,-851.4 368,-857.4 368,-863.4 368,-863.4 368,-897 368,-897 368,-903 362,-909 356,-909"/>
<text xml:space="preserve" text-anchor="middle" x="278" y="-882.65" font-family="Arial" font-size="14.00">Identificar</text>
<text xml:space="preserve" text-anchor="middle" x="278" y="-866.9" font-family="Arial" font-size="14.00">productos_populares</text>
</g>
<!-- ident_mejores&#45;&gt;ident_popular -->
<g id="edge19" class="edge">
<title>ident_mejores&#45;&gt;ident_popular</title>
<path fill="none" stroke="black" d="M278,-945.51C278,-937.71 278,-929.09 278,-920.76"/>
<polygon fill="black" stroke="black" points="281.5,-920.83 278,-910.83 274.5,-920.83 281.5,-920.83"/>
</g>
<!-- calc_stats -->
<g id="node19" class="node">
<title>calc_stats</title>
<path fill="plum" stroke="black" d="M356,-814.4C356,-814.4 200,-814.4 200,-814.4 194,-814.4 188,-808.4 188,-802.4 188,-802.4 188,-768.8 188,-768.8 188,-762.8 194,-756.8 200,-756.8 200,-756.8 356,-756.8 356,-756.8 362,-756.8 368,-762.8 368,-768.8 368,-768.8 368,-802.4 368,-802.4 368,-808.4 362,-814.4 356,-814.4"/>
<text xml:space="preserve" text-anchor="middle" x="278" y="-788.05" font-family="Arial" font-size="14.00">Calcular estadísticas</text>
<text xml:space="preserve" text-anchor="middle" x="278" y="-772.3" font-family="Arial" font-size="14.00">medios_pago</text>
</g>
<!-- ident_popular&#45;&gt;calc_stats -->
<g id="edge20" class="edge">
<title>ident_popular&#45;&gt;calc_stats</title>
<path fill="none" stroke="black" d="M278,-850.91C278,-843.11 278,-834.49 278,-826.16"/>
<polygon fill="black" stroke="black" points="281.5,-826.23 278,-816.23 274.5,-826.23 281.5,-826.23"/>
</g>
<!-- crear_reportes -->
<g id="node20" class="node">
<title>crear_reportes</title>
<path fill="plum" stroke="black" d="M356,-719.8C356,-719.8 200,-719.8 200,-719.8 194,-719.8 188,-713.8 188,-707.8 188,-707.8 188,-674.2 188,-674.2 188,-668.2 194,-662.2 200,-662.2 200,-662.2 356,-662.2 356,-662.2 362,-662.2 368,-668.2 368,-674.2 368,-674.2 368,-707.8 368,-707.8 368,-713.8 362,-719.8 356,-719.8"/>
<text xml:space="preserve" text-anchor="middle" x="278" y="-685.57" font-family="Arial" font-size="14.00">Crear Reportes</text>
</g>
<!-- calc_stats&#45;&gt;crear_reportes -->
<g id="edge21" class="edge">
<title>calc_stats&#45;&gt;crear_reportes</title>
<path fill="none" stroke="black" d="M278,-756.31C278,-748.51 278,-739.89 278,-731.56"/>
<polygon fill="black" stroke="black" points="281.5,-731.63 278,-721.63 274.5,-731.63 281.5,-731.63"/>
</g>
<!-- gen_grafico -->
<g id="node21" class="node">
<title>gen_grafico</title>
<path fill="plum" stroke="black" d="M356,-625.2C356,-625.2 200,-625.2 200,-625.2 194,-625.2 188,-619.2 188,-613.2 188,-613.2 188,-579.6 188,-579.6 188,-573.6 194,-567.6 200,-567.6 200,-567.6 356,-567.6 356,-567.6 362,-567.6 368,-573.6 368,-579.6 368,-579.6 368,-613.2 368,-613.2 368,-619.2 362,-625.2 356,-625.2"/>
<text xml:space="preserve" text-anchor="middle" x="278" y="-590.98" font-family="Arial" font-size="14.00">Generar gráfico_ventas</text>
</g>
<!-- crear_reportes&#45;&gt;gen_grafico -->
<g id="edge22" class="edge">
<title>crear_reportes&#45;&gt;gen_grafico</title>
<path fill="none" stroke="black" d="M278,-661.71C278,-653.91 278,-645.29 278,-636.96"/>
<polygon fill="black" stroke="black" points="281.5,-637.03 278,-627.03 274.5,-637.03 281.5,-637.03"/>
</g>
<!-- gen_tabla -->
<g id="node22" class="node">
<title>gen_tabla</title>
<path fill="plum" stroke="black" d="M356,-530.6C356,-530.6 200,-530.6 200,-530.6 194,-530.6 188,-524.6 188,-518.6 188,-518.6 188,-485 188,-485 188,-479 194,-473 200,-473 200,-473 356,-473 356,-473 362,-473 368,-479 368,-485 368,-485 368,-518.6 368,-518.6 368,-524.6 362,-530.6 356,-530.6"/>
<text xml:space="preserve" text-anchor="middle" x="278" y="-496.38" font-family="Arial" font-size="14.00">Generar tabla_clientes</text>
</g>
<!-- gen_grafico&#45;&gt;gen_tabla -->
<g id="edge23" class="edge">
<title>gen_grafico&#45;&gt;gen_tabla</title>
<path fill="none" stroke="black" d="M278,-567.11C278,-559.31 278,-550.69 278,-542.36"/>
<polygon fill="black" stroke="black" points="281.5,-542.43 278,-532.43 274.5,-542.43 281.5,-542.43"/>
</g>
<!-- gen_reporte -->
<g id="node23" class="node">
<title>gen_reporte</title>
<path fill="plum" stroke="black" d="M356,-436C356,-436 200,-436 200,-436 194,-436 188,-430 188,-424 188,-424 188,-390.4 188,-390.4 188,-384.4 194,-378.4 200,-378.4 200,-378.4 356,-378.4 356,-378.4 362,-378.4 368,-384.4 368,-390.4 368,-390.4 368,-424 368,-424 368,-430 362,-436 356,-436"/>
<text xml:space="preserve" text-anchor="middle" x="278" y="-401.78" font-family="Arial" font-size="14.00">Generar reporte_productos</text>
</g>
<!-- gen_tabla&#45;&gt;gen_reporte -->
<g id="edge24" class="edge">
<title>gen_tabla&#45;&gt;gen_reporte</title>
<path fill="none" stroke="black" d="M278,-472.51C278,-464.71 278,-456.09 278,-447.76"/>
<polygon fill="black" stroke="black" points="281.5,-447.83 278,-437.83 274.5,-447.83 281.5,-447.83"/>
</g>
<!-- guardar -->
<g id="node24" class="node">
<title>guardar</title>
<path fill="khaki" stroke="black" d="M356,-341.4C356,-341.4 200,-341.4 200,-341.4 194,-341.4 188,-335.4 188,-329.4 188,-329.4 188,-295.8 188,-295.8 188,-289.8 194,-283.8 200,-283.8 200,-283.8 356,-283.8 356,-283.8 362,-283.8 368,-289.8 368,-295.8 368,-295.8 368,-329.4 368,-329.4 368,-335.4 362,-341.4 356,-341.4"/>
<text xml:space="preserve" text-anchor="middle" x="278" y="-307.18" font-family="Arial" font-size="14.00">Guardar Resultados</text>
</g>
<!-- gen_reporte&#45;&gt;guardar -->
<g id="edge25" class="edge">
<title>gen_reporte&#45;&gt;guardar</title>
<path fill="none" stroke="black" d="M278,-377.91C278,-370.11 278,-361.49 278,-353.16"/>
<polygon fill="black" stroke="black" points="281.5,-353.23 278,-343.23 274.5,-353.23 281.5,-353.23"/>
</g>
<!-- guardar_arch -->
<g id="node25" class="node">
<title>guardar_arch</title>
<path fill="khaki" stroke="black" d="M356,-246.8C356,-246.8 200,-246.8 200,-246.8 194,-246.8 188,-240.8 188,-234.8 188,-234.8 188,-201.2 188,-201.2 188,-195.2 194,-189.2 200,-189.2 200,-189.2 356,-189.2 356,-189.2 362,-189.2 368,-195.2 368,-201.2 368,-201.2 368,-234.8 368,-234.8 368,-240.8 362,-246.8 356,-246.8"/>
<text xml:space="preserve" text-anchor="middle" x="278" y="-220.45" font-family="Arial" font-size="14.00">Guardar reportes</text>
<text xml:space="preserve" text-anchor="middle" x="278" y="-204.7" font-family="Arial" font-size="14.00">en archivos</text>
</g>
<!-- guardar&#45;&gt;guardar_arch -->
<g id="edge26" class="edge">
<title>guardar&#45;&gt;guardar_arch</title>
<path fill="none" stroke="black" d="M278,-283.31C278,-275.51 278,-266.89 278,-258.56"/>
<polygon fill="black" stroke="black" points="281.5,-258.63 278,-248.63 274.5,-258.63 281.5,-258.63"/>
</g>
<!-- exportar -->
<g id="node26" class="node">
<title>exportar</title>
<path fill="khaki" stroke="black" d="M356,-152.2C356,-152.2 200,-152.2 200,-152.2 194,-152.2 188,-146.2 188,-140.2 188,-140.2 188,-106.6 188,-106.6 188,-100.6 194,-94.6 200,-94.6 200,-94.6 356,-94.6 356,-94.6 362,-94.6 368,-100.6 368,-106.6 368,-106.6 368,-140.2 368,-140.2 368,-146.2 362,-152.2 356,-152.2"/>
<text xml:space="preserve" text-anchor="middle" x="278" y="-117.97" font-family="Arial" font-size="14.00">Exportar gráficos</text>
</g>
<!-- guardar_arch&#45;&gt;exportar -->
<g id="edge27" class="edge">
<title>guardar_arch&#45;&gt;exportar</title>
<path fill="none" stroke="black" d="M278,-188.71C278,-180.91 278,-172.29 278,-163.96"/>
<polygon fill="black" stroke="black" points="281.5,-164.03 278,-154.03 274.5,-164.03 281.5,-164.03"/>
</g>
<!-- fin -->
<g id="node27" class="node">
<title>fin</title>
<ellipse fill="lightgreen" stroke="black" cx="278" cy="-28.8" rx="90" ry="28.8"/>
<text xml:space="preserve" text-anchor="middle" x="278" y="-23.37" font-family="Arial" font-size="14.00">FIN</text>
</g>
<!-- exportar&#45;&gt;fin -->
<g id="edge28" class="edge">
<title>exportar&#45;&gt;fin</title>
<path fill="none" stroke="black" d="M278,-94.11C278,-86.31 278,-77.69 278,-69.36"/>
<polygon fill="black" stroke="black" points="281.5,-69.43 278,-59.43 274.5,-69.43 281.5,-69.43"/>
</g>
</g>
</svg>
